# xmcd
#
# Track frame offsets: 
#        150
#        43325
#        76822
#        92942
#        141910
#        186787
#
# Disc length: 3661 seconds
#
# Revision: 8
# Processed by: cddbd v1.5.2PL0 Copyright (c) Steve Scherf et al.
# Submitted via: ExactAudioCopy v1.3
#
DISCID=4e0e4b06
DTITLE=Ten Years After - Live At The Fillmore East (Disc-1)
DYEAR=1970
DGENRE=Rock
TTITLE0=Love Like A Man
TTITLE1=Good Morning Little Schoolgirl
TTITLE2=Working On The Road
TTITLE3=The Hobbit
TTITLE4=50,000 Miles Beneath My Brain
TTITLE5=Skoobly-Oobly-Doobob - I Can't Keep From Crying Sometimes - Ex
TTITLE5=tension On One Chord
EXTD=YEAR: 1970
EXTT0=
EXTT1=
EXTT2=
EXTT3=
EXTT4=
EXTT5=
PLAYORDER=
